#!OML:ASF H:\GeneralSubjects\Female5\Project 1\Capture day 1\Session 1\Female5.ASF
:FULLY-SPECIFIED
:DEGREES
214
root 26.8519 16.0418 2.9733 -172.243 -3.01544 -178.273
lowerback 6.17544 3.1437 4.34215
upperback -10.2073 4.09379 -0.00922573
thorax -14.3862 1.12937 -3.08912
lowerneck -11.8779 8.18307 8.96302
upperneck 34.0686 9.54437 -6.93863
head 14.5479 3.34755 -3.11635
rclavicle 1.36913e-014 2.18663e-014
rhumerus -52.4033 15.0091 -87.0188
rradius 36.573
rwrist -9.83517
rhand -28.5803 -17.0794
rfingers 7.12502
rthumb -1.94639 -47.0502
lclavicle 1.36913e-014 2.18663e-014
lhumerus -50.9873 0.161385 73.4613
lradius 29.7556
lwrist -15.433
lhand -28.3326 27.5487
lfingers 7.12502
lthumb -1.70712 57.5216
rfemur 1.05045 20.1612 34.3961
rtibia -3.23734
rfoot -20.3544 -22.0901
rtoes -5.61687
lfemur -8.9134 -25.2691 -23.4375
ltibia 13.7377
lfoot -22.7011 5.37676
ltoes -52.5198
215
root 26.8608 16.0416 2.97146 -172.127 -3.03011 -178.297
lowerback 6.15617 3.10909 4.24887
upperback -10.1767 4.05445 0.185889
thorax -14.3614 1.13596 -2.81261
lowerneck -11.9224 8.2227 9.01449
upperneck 33.9275 9.73539 -7.33157
head 14.5439 3.39062 -3.24953
rclavicle -1.19768e-014 -2.14687e-014
rhumerus -52.1895 15.1347 -86.7317
rradius 35.9737
rwrist -9.7742
rhand -28.719 -17.3769
rfingers 7.12502
rthumb -2.08028 -47.3465
lclavicle -1.19768e-014 -2.14687e-014
lhumerus -51.1152 0.399538 73.7936
lradius 29.8076
lwrist -15.5152
lhand -27.8526 28.1089
lfingers 7.12502
lthumb -1.24353 58.085
rfemur 0.940833 20.315 34.4095
rtibia -3.23193
rfoot -20.3319 -22.1942
rtoes -4.05746
lfemur -9.06314 -25.3299 -23.3532
ltibia 13.7338
lfoot -22.425 5.67565
ltoes -52.6231
216
root 26.8648 16.0416 2.97052 -171.978 -3.05345 -178.368
lowerback 6.14072 3.12723 4.27915
upperback -10.1597 4.09134 0.267421
thorax -14.3327 1.15702 -2.74411
lowerneck -12.0732 8.25583 9.00289
upperneck 33.9159 9.86052 -7.52763
head 14.5998 3.41777 -3.30286
rclavicle 1.59028e-015 1.90833e-014
rhumerus -52.017 14.901 -86.2916
rradius 35.4152
rwrist -9.72021
rhand -28.7755 -17.6922
rfingers 7.12502
rthumb -2.13487 -47.6612
lclavicle 1.59028e-015 1.90833e-014
lhumerus -51.1262 0.409795 74.1622
lradius 29.9268
lwrist -15.2091
lhand -27.8031 28.486
lfingers 7.12502
lthumb -1.19577 58.4624
rfemur 0.747177 20.254 34.2903
rtibia -3.19959
rfoot -20.1798 -22.5278
rtoes -7.09823
lfemur -9.26695 -25.3856 -23.3618
ltibia 13.7903
lfoot -22.099 6.03133
ltoes -52.6246
217
root 26.8662 16.0438 2.97061 -171.833 -3.05068 -178.52
lowerback 6.17255 3.15646 4.31174
upperback -10.1398 4.14135 0.272831
thorax -14.3235 1.17949 -2.76648
lowerneck -12.1683 8.1738 8.79804
upperneck 33.7952 9.78412 -7.44952
head 14.535 3.38124 -3.23877
rclavicle 1.02871e-014 1.59028e-014
rhumerus -51.8483 14.5011 -85.7748
rradius 34.888
rwrist -9.73336
rhand -28.6496 -17.6614
rfingers 7.12502
rthumb -2.01329 -47.6316
lclavicle 1.02871e-014 1.59028e-014
lhumerus -51.1096 0.452054 74.4068
lradius 30.1269
lwrist -14.8914
lhand -27.7058 27.8656
lfingers 7.12502
lthumb -1.10179 57.8425
rfemur 0.546788 20.3653 34.076
rtibia -3.13022
rfoot -20.2856 -22.8416
rtoes -9.09901
lfemur -9.43999 -25.5085 -23.4556
ltibia 13.7964
lfoot -21.993 6.42
ltoes -52.5867
218
root 26.8678 16.0471 2.97159 -171.733 -3.01258 -178.598
lowerback 6.25433 3.17356 4.39614
upperback -10.0989 4.188 0.272207
thorax -14.3174 1.19639 -2.82653
lowerneck -12.2299 8.09349 8.7325
upperneck 33.6633 9.68869 -7.41947
head 14.4696 3.3493 -3.2225
rclavicle 2.127e-014 1.31198e-014
rhumerus -51.6642 14.057 -85.321
rradius 34.4137
rwrist -9.87869
rhand -28.7581 -17.7029
rfingers 7.12502
rthumb -2.11806 -47.6721
lclavicle 2.127e-014 1.31198e-014
lhumerus -51.1304 0.362042 74.7526
lradius 30.3049
lwrist -14.4653
lhand -28.1297 26.8587
lfingers 7.12502
lthumb -1.51118 56.8331
rfemur 0.401919 20.664 33.9749
rtibia -3.04919
rfoot -20.4057 -22.8712
rtoes -6.3796
lfemur -9.52773 -25.5955 -23.4627
ltibia 13.7
lfoot -22.061 6.75093
ltoes -52.5614
219
root 26.8681 16.0493 2.97164 -171.65 -2.96099 -178.615
lowerback 6.35022 3.18772 4.603
upperback -10.0585 4.24485 0.240541
thorax -14.3094 1.20286 -2.99136
lowerneck -12.4097 8.12438 8.79636
upperneck 33.7766 9.69958 -7.37392
head 14.566 3.36437 -3.21133
rclavicle -3.27498e-014 -6.75868e-015
rhumerus -51.4443 13.5118 -84.899
rradius 33.9721
rwrist -10.1625
rhand -28.8509 -17.8535
rfingers 7.12502
rthumb -2.20771 -47.8218
lclavicle -3.27498e-014 -6.75868e-015
lhumerus -51.0435 -0.375272 75.4027
lradius 30.4007
lwrist -13.5645
lhand -27.6532 28.6738
lfingers 7.12502
lthumb -1.051 58.651
rfemur 0.289156 20.7042 33.9218
rtibia -3.03699
rfoot -20.2758 -22.7633
rtoes -4.13498
lfemur -9.5881 -25.5387 -23.4013
ltibia 13.5578
lfoot -22.0237 7.00308
ltoes -52.6487
220
root 26.8667 16.0516 2.96881 -171.594 -2.90005 -178.706
lowerback 6.51185 3.19119 4.77475
upperback -10.032 4.28409 0.175486
thorax -14.3611 1.20001 -3.17539
lowerneck -12.5955 8.15126 8.76883
upperneck 33.9571 9.67997 -7.20601
head 14.677 3.36586 -3.14146
rclavicle -6.27663e-014 -1.59028e-014
rhumerus -51.2183 12.969 -84.4462
rradius 33.5622
rwrist -10.4439
rhand -28.566 -17.9686
rfingers 7.12502
rthumb -1.93258 -47.9396
lclavicle -6.27663e-014 -1.59028e-014
lhumerus -51.1398 -0.389217 75.6324
lradius 30.6128
lwrist -13.7648
lhand -28.5458 27.6578
lfingers 7.12502
lthumb -1.91305 57.629
rfemur 0.297517 20.8826 33.8017
rtibia -3.15151
rfoot -20.3269 -22.9199
rtoes -3.60097
lfemur -9.64319 -25.3492 -23.4355
ltibia 13.4661
lfoot -21.8427 7.1924
ltoes -52.9034
221
root 26.864 16.054 2.96472 -171.528 -2.85393 -178.85
lowerback 6.68947 3.20341 4.81072
upperback -10.0366 4.31713 0.128566
thorax -14.4714 1.2054 -3.26493
lowerneck -12.6003 8.13008 8.83871
upperneck 33.9666 9.63516 -7.22276
head 14.6838 3.3546 -3.16829
rclavicle -8.44835e-016 -2.06736e-014
rhumerus -51.142 12.5214 -84.0006
rradius 33.2775
rwrist -10.7015
rhand -28.4897 -18.0634
rfingers 7.12502
rthumb -1.85883 -48.0351
lclavicle -8.44835e-016 -2.06736e-014
lhumerus -51.2488 -0.164558 75.7186
lradius 30.6967
lwrist -14.347
lhand -28.8468 28.3355
lfingers 7.12502
lthumb -2.20371 58.3038
rfemur 0.379681 21.2796 33.6438
rtibia -3.36353
rfoot -20.4255 -23.3577
rtoes -4.44862
lfemur -9.67394 -25.1974 -23.5609
ltibia 13.3579
lfoot -21.5924 7.38497
ltoes -53.1586
222
root 26.8603 16.0568 2.95987 -171.406 -2.83371 -179.019
lowerback 6.75332 3.18641 4.74679
upperback -10.0398 4.28936 0.117956
thorax -14.5221 1.19677 -3.24069
lowerneck -12.5017 8.1242 8.88323
upperneck 33.8736 9.6295 -7.24199
head 14.6217 3.36305 -3.18319
rclavicle -2.30093e-014 5.1684e-015
rhumerus -51.1285 12.4117 -83.7197
rradius 33.1104
rwrist -11.0613
rhand -28.6861 -18.0727
rfingers 7.12502
rthumb -2.04855 -48.0426
lclavicle -2.30093e-014 5.1684e-015
lhumerus -51.1717 -0.250336 75.9667
lradius 30.5308
lwrist -14.308
lhand -28.5067 28.6784
lfingers 7.12502
lthumb -1.87532 58.6499
rfemur 0.412805 21.4533 33.4313
rtibia -3.59577
rfoot -20.3513 -23.6918
rtoes -6.48333
lfemur -9.70387 -25.1482 -23.7202
ltibia 13.1904
lfoot -21.1698 7.71267
ltoes -53.4537
223
root 26.8583 16.0593 2.95312 -171.251 -2.81088 -179.122
lowerback 6.69657 3.0969 4.61819
upperback -10.006 4.15899 0.245278
thorax -14.4748 1.16084 -3.00062
lowerneck -12.5112 8.19313 8.67043
upperneck 33.8706 9.73933 -7.09088
head 14.6085 3.40239 -3.06358
rclavicle 1.80894e-014 2.50469e-014
rhumerus -51.0235 12.854 -83.5415
rradius 33.0247
rwrist -11.4878
rhand -28.7363 -18.2163
rfingers 7.12502
rthumb -2.09704 -48.1858
lclavicle 1.80894e-014 2.50469e-014
lhumerus -51.0795 -0.123499 76.2658
lradius 30.3014
lwrist -13.8307
lhand -28.3466 28.0105
lfingers 7.12502
lthumb -1.72062 57.9833
rfemur 0.443888 21.8442 33.3302
rtibia -3.81495
rfoot -20.5431 -24.0211
rtoes -6.04899
lfemur -9.66271 -25.4028 -23.785
ltibia 12.8863
lfoot -20.9262 8.298
ltoes -53.613
224
root 26.8577 16.0609 2.94293 -171.051 -2.77852 -179.08
lowerback 6.57355 3.03855 4.57739
upperback -10.0129 4.0733 0.391766
thorax -14.4256 1.13302 -2.79234
lowerneck -12.5304 8.25541 8.63995
upperneck 33.9037 9.82686 -7.06094
head 14.6338 3.43692 -3.0313
rclavicle -2.127e-014 1.23246e-014
rhumerus -50.958 13.0984 -83.3206
rradius 32.9483
rwrist -11.6014
rhand -28.5813 -18.251
rfingers 7.12502
rthumb -1.94734 -48.2218
lclavicle -2.127e-014 1.23246e-014
lhumerus -51.1983 0.131146 76.545
lradius 30.2751
lwrist -13.4026
lhand -28.4018 27.6197
lfingers 7.12502
lthumb -1.77401 57.592
rfemur 0.500009 22.484 33.4339
rtibia -4.10568
rfoot -20.6191 -24.6455
rtoes -5.77253
lfemur -9.4775 -26.1391 -23.7223
ltibia 12.3591
lfoot -20.9622 9.38466
ltoes -53.293
225
root 26.8554 16.0646 2.92943 -170.884 -2.7366 -178.949
lowerback 6.48631 3.08577 4.8574
upperback -10.0644 4.1523 0.310559
thorax -14.4013 1.12985 -3.04619
lowerneck -12.407 8.18133 8.87099
upperneck 33.8196 9.64378 -7.0043
head 14.5598 3.40678 -3.078
rclavicle -1.14301e-014 4.77083e-015
rhumerus -50.9799 12.5271 -83.1062
rradius 32.8006
rwrist -11.2837
rhand -28.4547 -18.0886
rfingers 7.12502
rthumb -1.82503 -48.0606
lclavicle -1.14301e-014 4.77083e-015
lhumerus -51.3148 -0.160073 76.7579
lradius 30.3535
lwrist -13.1977
lhand -26.9526 28.1128
lfingers 7.12502
lthumb -0.374273 58.0922
rfemur 0.689544 23.3311 33.6781
rtibia -4.49893
rfoot -20.6035 -25.5676
rtoes -6.73285
lfemur -9.46301 -26.0808 -23.5233
ltibia 12.0449
lfoot -20.8222 9.76981
ltoes -53.4742
226
root 26.8523 16.0717 2.91703 -170.738 -2.67743 -178.872
lowerback 6.42251 3.15315 5.13601
upperback -10.0992 4.25774 0.170613
thorax -14.364 1.1382 -3.37023
lowerneck -12.3103 8.09395 8.96399
upperneck 33.7524 9.42277 -6.77971
head 14.4743 3.36482 -3.03706
rclavicle -2.33572e-015 2.66371e-014
rhumerus -50.9854 11.8924 -82.9271
rradius 32.672
rwrist -10.9656
rhand -28.7583 -18.2882
rfingers 7.12502
rthumb -2.1183 -48.2574
lclavicle -2.33572e-015 2.66371e-014
lhumerus -51.2391 -0.670048 76.923
lradius 30.3408
lwrist -13.4006
lhand -28.7265 28.4662
lfingers 7.12502
lthumb -2.08755 58.4358
rfemur 0.945617 24.6129 33.888
rtibia -4.88994
rfoot -21.141 -26.6364
rtoes -5.8451
lfemur -9.36717 -26.2898 -23.4259
ltibia 11.6854
lfoot -20.7558 10.3624
ltoes -53.4767
227
root 26.8489 16.0797 2.90655 -170.546 -2.59877 -178.897
lowerback 6.3384 3.15599 5.09662
upperback -10.1424 4.24239 0.17812
thorax -14.3667 1.13056 -3.33233
lowerneck -12.3608 8.13647 8.95343
upperneck 33.9082 9.4107 -6.59086
head 14.544 3.37453 -2.96323
rclavicle -2.18663e-015 -6.75868e-015
rhumerus -50.9852 11.7766 -82.8069
rradius 32.5912
rwrist -10.8772
rhand -29.1714 -18.6358
rfingers 7.12502
rthumb -2.51727 -48.6007
lclavicle -2.18663e-015 -6.75868e-015
lhumerus -51.2327 -0.752639 77.0273
lradius 30.3597
lwrist -13.8026
lhand -28.799 28.4141
lfingers 7.12502
lthumb -2.15763 58.3829
rfemur 1.15236 26.1535 33.9763
rtibia -5.2381
rfoot -22.1567 -27.6836
rtoes -3.51844
lfemur -9.42768 -26.3178 -23.385
ltibia 11.4522
lfoot -20.6161 10.8685
ltoes -53.5476
228
root 26.8429 16.0859 2.89349 -170.397 -2.51211 -178.866
lowerback 6.25575 3.11106 5.06318
upperback -10.1768 4.16931 0.257059
thorax -14.3705 1.09965 -3.20841
lowerneck -12.4249 8.24095 8.90278
upperneck 34.1183 9.48813 -6.38364
head 14.648 3.41427 -2.86112
rclavicle 4.7112e-014 -2.38542e-015
rhumerus -50.9919 11.8277 -82.7294
rradius 32.5327
rwrist -10.9876
rhand -29.2208 -18.5642
rfingers 7.12502
rthumb -2.56495 -48.5285
lclavicle 4.7112e-014 -2.38542e-015
lhumerus -51.245 -0.722208 77.1386
lradius 30.3067
lwrist -13.8284
lhand -29.4802 27.7859
lfingers 7.12502
lthumb -2.81547 57.747
rfemur 1.50207 27.8503 34.1808
rtibia -5.64313
rfoot -23.3689 -28.8349
rtoes -1.4855
lfemur -9.05041 -27.1824 -23.4295
ltibia 10.7487
lfoot -20.6403 12.3199
ltoes -53.0659
